<svg width="40" height="40" viewBox="0 0 40 40" fill="none" xmlns="http://www.w3.org/2000/svg">
<path d="M12.8 18H32C33.104 18 34 18.896 34 20C34 21.104 33.104 22 32 22H12.8L17.42 26.62C17.814 27.014 18 27.484 18 28C18 28.984 17.188 30 16 30C15.469 30 15.006 29.807 14.62 29.42L6.646 21.447C6.27899 21.08 6 20.729 6 20C6 19.271 6.33401 18.866 6.66199 18.538L14.62 10.58C15.006 10.193 15.469 10 16 10C17.187 10 18 11.016 18 12C18 12.516 17.814 12.986 17.42 13.38L12.8 18Z" fill="#3500A6"/>
<path fill-rule="evenodd" clip-rule="evenodd" d="M40 20C40 31.0457 31.0457 40 20 40C8.95432 40 0 31.0457 0 20C0 8.95432 8.95432 0 20 0C31.0457 0 40 8.95432 40 20ZM37 20C37 29.3889 29.3889 37 20 37C10.6111 37 3 29.3889 3 20C3 10.6111 10.6111 3 20 3C29.3889 3 37 10.6111 37 20Z" fill="#3500A6"/>
</svg>
