<svg width="30" height="30" viewBox="0 0 30 30" fill="none" xmlns="http://www.w3.org/2000/svg">
<path fill-rule="evenodd" clip-rule="evenodd" d="M15 8.57143C11.4496 8.57143 8.57143 11.4496 8.57143 15C8.57143 18.5504 11.4496 21.4286 15 21.4286C18.5504 21.4286 21.4286 18.5504 21.4286 15C21.4286 11.4496 18.5504 8.57143 15 8.57143ZM10.7143 15C10.7143 12.6331 12.6331 10.7143 15 10.7143C17.3669 10.7143 19.2857 12.6331 19.2857 15C19.2857 17.3669 17.3669 19.2857 15 19.2857C12.6331 19.2857 10.7143 17.3669 10.7143 15Z" fill="#3500A6"/>
<path fill-rule="evenodd" clip-rule="evenodd" d="M15 4.28572C8.05385 4.28572 2.13698 8.6119 0.0583272 14.6513C-0.0194424 14.8773 -0.0194424 15.1227 0.0583272 15.3487C2.13698 21.3881 8.05385 25.7143 15 25.7143C21.9461 25.7143 27.863 21.3881 29.9417 15.3487C30.0194 15.1227 30.0194 14.8773 29.9417 14.6513C27.863 8.6119 21.9461 4.28572 15 4.28572ZM15 23.5714C9.08489 23.5714 4.09015 19.9751 2.21038 15C4.09015 10.0249 9.08489 6.42858 15 6.42858C20.9151 6.42858 25.9099 10.0249 27.7896 15C25.9099 19.9751 20.9151 23.5714 15 23.5714Z" fill="#3500A6"/>
</svg>
