<svg width="58" height="60" viewBox="0 0 58 60" fill="none" xmlns="http://www.w3.org/2000/svg">
<path d="M15.0212 3.07349C7.18373 3.07349 0.81316 9.42485 0.81316 17.2425C0.81316 21.8906 3.09925 25.9913 6.57212 28.5823H4.28859V30.0135V35.7279H0V37.165V45.7254H4.28859V50.0029H0V51.4398V60.0001H25.7649V52.871H30.0591V42.8794H25.7649V38.5738H30.0591V28.5823H23.4814C26.9603 25.9913 29.2515 21.8906 29.2515 17.2425C29.2515 9.42485 22.8587 3.07349 15.0212 3.07349ZM15.0212 5.91947C21.3156 5.91947 26.3943 10.9641 26.3943 17.2425C26.3943 23.5019 21.3448 28.5516 15.0769 28.5823H14.9655C8.69776 28.5499 3.67037 23.5019 3.67037 17.2425C3.67037 10.9641 8.72684 5.91947 15.0212 5.91947ZM7.14022 31.4503H27.2075V35.7279H25.7649H7.14022V31.4503ZM2.85163 38.5738H22.9133V42.8794H2.85163V38.5738ZM7.14022 45.7254H25.7649H27.2075V50.0029H25.7649H7.14022V45.7254ZM2.85163 52.871H22.9133V57.1541H2.85163V52.871Z" fill="#3500A6"/>
<path d="M13.5958 9.46143V10.893V11.3991H10.5381V18.6732H16.6758V20.255H11.9695H10.5381V23.1009H11.9695H13.5958V23.6073V25.0386H16.4697V23.6073V23.1009H19.5274V15.8268H13.3897V14.2454H18.0905H19.5274V11.3991H18.0905H16.4697V10.893V9.46143H13.5958Z" fill="white"/>
<path d="M45.0945 0L32.791 15.1188H35.7929H39.9575L40.1055 47.1489H50.1047V15.1188H57.398L45.0945 0ZM45.0945 4.53355L51.4154 12.2722H47.2508V44.3022H42.9382L42.7902 12.2722H38.7948L45.0945 4.53355Z" fill="#009C22"/>
<path d="M40.1055 50.0166V52.8632H41.543H48.646H50.0835V50.0166H48.646H41.543H40.1055Z" fill="#009C22"/>
<path d="M40.1055 55.7312V58.5778H41.543H48.646H50.0835V55.7312H48.646H41.543H40.1055Z" fill="#009C22"/>
</svg>
