<svg width="31" height="30" viewBox="0 0 31 30" fill="none" xmlns="http://www.w3.org/2000/svg">
<path d="M22.5238 9C22.5238 13.9706 19.1659 18 15.0238 18C10.8816 18 7.52378 13.9706 7.52378 9C7.52378 4.02945 10.8816 0 15.0238 0C19.1659 0 22.5238 4.02945 22.5238 9Z" fill="#D9D9D9"/>
<path d="M22.5238 19.35C25.8238 20.7 28.3738 22.95 29.7238 25.65C30.7738 27.75 29.1238 30 26.8738 30H3.17377C0.923769 30 -0.72624 27.75 0.323763 25.8C1.67377 23.1 4.22377 20.85 7.52376 19.5C8.42377 19.05 9.47377 19.2 10.2238 19.5C11.7238 20.4 13.2238 20.85 15.0238 20.85C16.8238 20.85 18.3238 20.4 19.8238 19.5C20.5738 19.05 21.6238 19.05 22.5238 19.35Z" fill="#D9D9D9"/>
</svg>
