<svg width="30" height="30" viewBox="0 0 30 30" fill="none" xmlns="http://www.w3.org/2000/svg">
<path fill-rule="evenodd" clip-rule="evenodd" d="M1.82904 0.313814C1.41062 -0.104605 0.732233 -0.104605 0.313814 0.313814C-0.104605 0.732233 -0.104605 1.41062 0.313814 1.82904L5.69485 7.21008C3.09193 9.04617 1.09646 11.6351 0.0583272 14.6513C-0.0194424 14.8773 -0.0194424 15.1227 0.0583272 15.3487C2.13698 21.3881 8.05385 25.7143 15 25.7143C17.6795 25.7143 20.2058 25.0705 22.4178 23.933L28.171 29.6862C28.5894 30.1046 29.2678 30.1046 29.6862 29.6862C30.1046 29.2678 30.1046 28.5894 29.6862 28.171L24.3052 22.7899C26.9081 20.9538 28.9035 18.3649 29.9417 15.3487C30.0194 15.1227 30.0194 14.8773 29.9417 14.6513C27.863 8.6119 21.9461 4.28571 15 4.28571C12.3205 4.28571 9.79417 4.92947 7.58223 6.067L1.82904 0.313814ZM7.2361 8.75133C4.9432 10.2776 3.17048 12.4589 2.21038 15C4.09015 19.9751 9.08489 23.5714 15 23.5714C17.0842 23.5714 19.0541 23.1249 20.8138 22.329L18.7249 20.2401C17.674 20.9884 16.3884 21.4286 15 21.4286C11.4496 21.4286 8.57143 18.5504 8.57143 15C8.57143 13.6116 9.01156 12.326 9.75991 11.2751L7.2361 8.75133ZM11.2751 9.75991L9.18625 7.67102C10.9459 6.87505 12.9158 6.42857 15 6.42857C20.9151 6.42857 25.9099 10.0249 27.7896 15C26.8295 17.5411 25.0568 19.7224 22.7639 21.2487L20.2401 18.7249C20.9884 17.674 21.4286 16.3884 21.4286 15C21.4286 11.4496 18.5504 8.57143 15 8.57143C13.6116 8.57143 12.326 9.01156 11.2751 9.75991ZM11.3077 12.8229C10.9306 13.4609 10.7143 14.2052 10.7143 15C10.7143 17.3669 12.6331 19.2857 15 19.2857C15.7948 19.2857 16.5391 19.0694 17.1771 18.6923L11.3077 12.8229ZM18.6923 17.1771L12.8229 11.3077C13.4609 10.9306 14.2052 10.7143 15 10.7143C17.3669 10.7143 19.2857 12.6331 19.2857 15C19.2857 15.7948 19.0694 16.5391 18.6923 17.1771Z" fill="#3500A6"/>
</svg>
