<svg width="36" height="30" viewBox="0 0 36 30" fill="none" xmlns="http://www.w3.org/2000/svg">
<path d="M4 3.33333H32V6.66667H4V3.33333Z" fill="#D9D9D9"/>
<path d="M4 13.3333H32V16.6667H4V13.3333Z" fill="#D9D9D9"/>
<path d="M4 23.3333H32V26.6667H4V23.3333Z" fill="#D9D9D9"/>
<path fill-rule="evenodd" clip-rule="evenodd" d="M0 3.33333C0 1.49238 1.49238 0 3.33333 0H32.6667C34.5076 0 36 1.49238 36 3.33333V26.6667C36 28.5076 34.5076 30 32.6667 30H3.33333C1.49238 30 0 28.5076 0 26.6667V3.33333ZM3.33333 0.333333H32.6667C34.3235 0.333333 35.6667 1.67648 35.6667 3.33333V26.6667C35.6667 28.3235 34.3235 29.6667 32.6667 29.6667H3.33333C1.67648 29.6667 0.333333 28.3235 0.333333 26.6667V3.33333C0.333333 1.67648 1.67648 0.333333 3.33333 0.333333Z" fill="#D9D9D9"/>
</svg>
